<svg width="32" height="32" viewBox="0 0 32 32" xmlns="http://www.w3.org/2000/svg">
  <defs>
    <linearGradient id="backgroundGradient" x1="0%" y1="0%" x2="100%" y2="100%">
      <stop offset="0%" style="stop-color:#1a1a1a;stop-opacity:1" />
      <stop offset="100%" style="stop-color:#0d0d0d;stop-opacity:1" />
    </linearGradient>
    <linearGradient id="greenGradient" x1="0%" y1="0%" x2="100%" y2="100%">
      <stop offset="0%" style="stop-color:#00ff88;stop-opacity:1" />
      <stop offset="100%" style="stop-color:#00cc66;stop-opacity:1" />
    </linearGradient>
    <linearGradient id="redGradient" x1="0%" y1="0%" x2="100%" y2="100%">
      <stop offset="0%" style="stop-color:#ff4444;stop-opacity:1" />
      <stop offset="100%" style="stop-color:#cc3333;stop-opacity:1" />
    </linearGradient>
  </defs>
  
  <!-- Background circle -->
  <circle cx="16" cy="16" r="16" fill="url(#backgroundGradient)"/>
  
  <!-- Chart grid lines -->
  <g stroke="#333333" stroke-width="0.5" opacity="0.6">
    <line x1="6" y1="8" x2="26" y2="8"/>
    <line x1="6" y1="12" x2="26" y2="12"/>
    <line x1="6" y1="16" x2="26" y2="16"/>
    <line x1="6" y1="20" x2="26" y2="20"/>
    <line x1="6" y1="24" x2="26" y2="24"/>
    <line x1="6" y1="8" x2="6" y2="24"/>
    <line x1="11" y1="8" x2="11" y2="24"/>
    <line x1="16" y1="8" x2="16" y2="24"/>
    <line x1="21" y1="8" x2="21" y2="24"/>
    <line x1="26" y1="8" x2="26" y2="24"/>
  </g>
  
  <!-- Candlestick chart elements -->
  <!-- Green candlestick (bullish) -->
  <g transform="translate(8, 0)">
    <rect x="0" y="10" width="2" height="8" fill="url(#greenGradient)" stroke="#00aa55" stroke-width="0.5"/>
    <line x1="1" y1="8" x2="1" y2="10" stroke="url(#greenGradient)" stroke-width="1"/>
    <line x1="1" y1="18" x2="1" y2="20" stroke="url(#greenGradient)" stroke-width="1"/>
  </g>
  
  <!-- Red candlestick (bearish) -->
  <g transform="translate(12, 0)">
    <rect x="0" y="14" width="2" height="6" fill="url(#redGradient)" stroke="#aa3333" stroke-width="0.5"/>
    <line x1="1" y1="12" x2="1" y2="14" stroke="url(#redGradient)" stroke-width="1"/>
    <line x1="1" y1="20" x2="1" y2="22" stroke="url(#redGradient)" stroke-width="1"/>
  </g>
  
  <!-- Green candlestick (bullish) -->
  <g transform="translate(16, 0)">
    <rect x="0" y="8" width="2" height="10" fill="url(#greenGradient)" stroke="#00aa55" stroke-width="0.5"/>
    <line x1="1" y1="6" x2="1" y2="8" stroke="url(#greenGradient)" stroke-width="1"/>
    <line x1="1" y1="18" x2="1" y2="20" stroke="url(#greenGradient)" stroke-width="1"/>
  </g>
  
  <!-- Red candlestick (bearish) -->
  <g transform="translate(20, 0)">
    <rect x="0" y="16" width="2" height="4" fill="url(#redGradient)" stroke="#aa3333" stroke-width="0.5"/>
    <line x1="1" y1="14" x2="1" y2="16" stroke="url(#redGradient)" stroke-width="1"/>
    <line x1="1" y1="20" x2="1" y2="22" stroke="url(#redGradient)" stroke-width="1"/>
  </g>
  
  <!-- Price line chart -->
  <path d="M 6 20 Q 11 18 16 12 Q 21 8 26 10" 
        stroke="#00ff88" 
        stroke-width="2" 
        fill="none" 
        opacity="0.8"/>
  
  <!-- Volume bars -->
  <g opacity="0.4">
    <rect x="7" y="26" width="1" height="3" fill="url(#greenGradient)"/>
    <rect x="9" y="25" width="1" height="4" fill="url(#redGradient)"/>
    <rect x="11" y="24" width="1" height="5" fill="url(#greenGradient)"/>
    <rect x="13" y="26" width="1" height="3" fill="url(#redGradient)"/>
    <rect x="15" y="23" width="1" height="6" fill="url(#greenGradient)"/>
    <rect x="17" y="25" width="1" height="4" fill="url(#redGradient)"/>
    <rect x="19" y="26" width="1" height="3" fill="url(#greenGradient)"/>
    <rect x="21" y="24" width="1" height="5" fill="url(#redGradient)"/>
    <rect x="23" y="25" width="1" height="4" fill="url(#greenGradient)"/>
  </g>
</svg>
