<svg width="32" height="32" viewBox="0 0 32 32" xmlns="http://www.w3.org/2000/svg">
  <defs>
    <linearGradient id="whiteGradient" x1="0%" y1="0%" x2="100%" y2="100%">
      <stop offset="0%" style="stop-color:#ffffff;stop-opacity:1" />
      <stop offset="100%" style="stop-color:#f8f8f8;stop-opacity:1" />
    </linearGradient>
    <linearGradient id="greenGradient" x1="0%" y1="0%" x2="100%" y2="100%">
      <stop offset="0%" style="stop-color:#00ff88;stop-opacity:1" />
      <stop offset="100%" style="stop-color:#00cc66;stop-opacity:1" />
    </linearGradient>
    <linearGradient id="greenShadow" x1="0%" y1="0%" x2="100%" y2="100%">
      <stop offset="0%" style="stop-color:#00aa55;stop-opacity:1" />
      <stop offset="100%" style="stop-color:#008844;stop-opacity:1" />
    </linearGradient>
  </defs>
  
  <!-- Background circle -->
  <circle cx="16" cy="16" r="16" fill="#000000"/>
  
  <!-- Pill shape with improved design -->
  <g transform="rotate(45 16 16)">
    <!-- White half with subtle shading -->
    <path d="M8 12 L24 12 L24 20 L8 20 Z" fill="url(#whiteGradient)" stroke="#00cc66" stroke-width="1.5"/>
    
    <!-- Green half with gradient and shadow -->
    <path d="M8 20 L24 20 L24 28 L8 28 Z" fill="url(#greenGradient)" stroke="#00cc66" stroke-width="1.5"/>
    
    <!-- Shadow on green half -->
    <path d="M8 20 L24 20 L24 28 L8 28 Z" fill="url(#greenShadow)" opacity="0.3"/>
    
    <!-- Highlight lines on green half -->
    <line x1="10" y1="22" x2="22" y2="22" stroke="#ffffff" stroke-width="0.5" opacity="0.8" stroke-dasharray="1,1"/>
    <line x1="10" y1="24" x2="22" y2="24" stroke="#ffffff" stroke-width="0.5" opacity="0.6" stroke-dasharray="1,1"/>
    
    <!-- Subtle shadow on white half -->
    <path d="M8 12 L24 12 L24 20 L8 20 Z" fill="#e0e0e0" opacity="0.2"/>
  </g>
  
  <!-- Outer border for definition -->
  <g transform="rotate(45 16 16)">
    <path d="M8 12 L24 12 L24 20 L8 20 Z" fill="none" stroke="#00aa55" stroke-width="2"/>
    <path d="M8 20 L24 20 L24 28 L8 28 Z" fill="none" stroke="#00aa55" stroke-width="2"/>
  </g>
</svg>