<svg width="32" height="32" viewBox="0 0 32 32" xmlns="http://www.w3.org/2000/svg">
  <defs>
    <linearGradient id="whiteGradient" x1="0%" y1="0%" x2="100%" y2="100%">
      <stop offset="0%" style="stop-color:#ffffff;stop-opacity:1" />
      <stop offset="100%" style="stop-color:#f8f8f8;stop-opacity:1" />
    </linearGradient>
    <linearGradient id="greenGradient" x1="0%" y1="0%" x2="100%" y2="100%">
      <stop offset="0%" style="stop-color:#00ff88;stop-opacity:1" />
      <stop offset="100%" style="stop-color:#00cc66;stop-opacity:1" />
    </linearGradient>
    <linearGradient id="greenShadow" x1="0%" y1="0%" x2="100%" y2="100%">
      <stop offset="0%" style="stop-color:#00aa55;stop-opacity:1" />
      <stop offset="100%" style="stop-color:#008844;stop-opacity:1" />
    </linearGradient>
  </defs>
  
  <!-- Background circle -->
  <circle cx="16" cy="16" r="16" fill="#000000"/>
  
  <!-- Pill shape - horizontal orientation -->
  <g transform="translate(0, 0)">
    <!-- White half (right side) -->
    <path d="M16 8 L24 8 L24 24 L16 24 Z" fill="url(#whiteGradient)" stroke="#00cc66" stroke-width="1"/>
    
    <!-- Green half (left side) -->
    <path d="M8 8 L16 8 L16 24 L8 24 Z" fill="url(#greenGradient)" stroke="#00cc66" stroke-width="1"/>
    
    <!-- Subtle shadow on green half -->
    <path d="M8 8 L16 8 L16 24 L8 24 Z" fill="url(#greenShadow)" opacity="0.2"/>
    
    <!-- Subtle shadow on white half -->
    <path d="M16 8 L24 8 L24 24 L16 24 Z" fill="#e0e0e0" opacity="0.1"/>
    
    <!-- Highlight on green half -->
    <path d="M8 8 L16 8 L16 12 L8 12 Z" fill="#ffffff" opacity="0.3"/>
    
    <!-- Highlight on white half -->
    <path d="M16 8 L24 8 L24 12 L16 12 Z" fill="#ffffff" opacity="0.2"/>
  </g>
  
  <!-- Outer border for definition -->
  <g transform="translate(0, 0)">
    <path d="M8 8 L24 8 L24 24 L8 24 Z" fill="none" stroke="#00aa55" stroke-width="1.5"/>
  </g>
</svg>
